# xmcd CD database file
#
# Track frame offsets:
#	150
#	17392
#	44608
#	62356
#	76736
#	100042
#	116896
#	136365
#
# Disc length: 2018 seconds
#
# Revision: 0
# Processed by: cddbd v1.5.2PL0 Copyright (c) Steve Scherf et al.
# Submitted via: CDex 1.70beta3
#
DISCID=5b07e008
DTITLE=Terry Pollard - Terry Pollard
DYEAR=1955
DGENRE=Jazz
TTITLE0=Fedi
TTITLE1=Autumn Serenade
TTITLE2=Laura
TTITLE3=Where Or When
TTITLE4=Scrapple From The Apple
TTITLE5=Emaline
TTITLE6=The More I See You
TTITLE7=Almost Like Being In Love
EXTD=YEAR: 1955
EXTT0=
EXTT1=
EXTT2=
EXTT3=
EXTT4=
EXTT5=
EXTT6=
EXTT7=
PLAYORDER=
